<svg id="Layer_1" data-name="Layer 1" xmlns="http://www.w3.org/2000/svg" viewBox="0 0 136.67 22.48"><path d="M10.25,9.36,9.18,8.28c.34-.33.71-.7,1.07-1.07Z"/><path d="M14.37,15.8c-1.83,1.83-3.69,3.7-5.57,5.56V10.23Z"/><path d="M19.23,6.7a.76.76,0,0,1-.73.75A.74.74,0,1,1,18.5,6,.76.76,0,0,1,19.23,6.7Z"/><path d="M11.77,0V10.79a.62.62,0,0,0,.15.34l3.73,3.73A.49.49,0,0,0,16,15h4.88a.53.53,0,0,0,.41-.17L25,11.15a.55.55,0,0,0,.17-.42c0-3.48,0-7,0-10.44V0ZM22.47,8.7a2.13,2.13,0,0,1-2.34-.21.21.21,0,0,0-.3,0,2.23,2.23,0,0,1-3.51-1.23,2.23,2.23,0,0,1,3.5-2.34,2.31,2.31,0,0,1,.91,1.8.73.73,0,0,0,1,.68.75.75,0,0,0,.48-.71,3.73,3.73,0,1,0-7.36.91A3.79,3.79,0,0,0,18,10.41a4.18,4.18,0,0,0,2-.29l.3-.11a.76.76,0,0,1,.92.45.7.7,0,0,1-.4.92,7.25,7.25,0,0,1-1.69.49A5,5,0,0,1,14,9.27a5.15,5.15,0,0,1,1.31-6.66,5.21,5.21,0,0,1,8.44,4A2.12,2.12,0,0,1,22.47,8.7Z"/><path d="M27,22.37l.09.1H9.87L10,22.3c1.88-1.88,3.76-3.76,5.64-5.62a.57.57,0,0,1,.36-.16H21a.45.45,0,0,1,.32.12C23.19,18.54,25.1,20.46,27,22.37Z"/><path d="M27.8,8.35,26.72,9.44V7.26Z"/><path d="M22.6,15.8l5.57-5.58V21.36Z"/><rect x="37.18" width="1.3" height="22.48"/><path d="M58,8.41H54.9V5.82a.73.73,0,0,0-.16-.57.84.84,0,0,0-.58-.15H52.92a.87.87,0,0,0-.59.15.77.77,0,0,0-.16.57V16.66a.77.77,0,0,0,.16.57.87.87,0,0,0,.59.15h1.24a.84.84,0,0,0,.58-.15.73.73,0,0,0,.16-.57V14.12H58V17c0,1.75-1,2.62-2.89,2.62H52c-1.92,0-2.88-.87-2.88-2.62V5.5c0-1.75,1-2.62,2.88-2.62h3.09C57,2.88,58,3.75,58,5.5Z"/><path d="M62.89,2.88h3.23C68,2.88,69,3.75,69,5.5V17q0,2.61-2.88,2.61H62.89Q60,19.57,60,17V5.5C60,3.75,61,2.88,62.89,2.88ZM66,16.53V5.92a.76.76,0,0,0-.16-.57.93.93,0,0,0-.58-.14h-1.4a1,1,0,0,0-.61.14.76.76,0,0,0-.16.57V16.53a.76.76,0,0,0,.16.57.9.9,0,0,0,.61.15h1.4a.86.86,0,0,0,.58-.15A.76.76,0,0,0,66,16.53Z"/><path d="M77.92,2.88H80.7V19.57H77.84l-3.57-11V19.57H71.46V2.88H74.4l3.52,10.9Z"/><path d="M91,2.88V5.21H88.08V19.57H85V5.21H82.12V2.88Z"/><path d="M99.27,19.57l-.64-3.46H95l-.58,3.46h-3L94.72,2.88h4.1l3.52,16.69Zm-3.89-5.76h2.83l-1.45-8Z"/><path d="M112.55,8.41h-3.07V5.82a.73.73,0,0,0-.16-.57.84.84,0,0,0-.58-.15H107.5a.84.84,0,0,0-.58.15.73.73,0,0,0-.16.57V16.66a.73.73,0,0,0,.16.57.84.84,0,0,0,.58.15h1.24a.84.84,0,0,0,.58-.15.73.73,0,0,0,.16-.57V14.12h3.07V17c0,1.75-1,2.62-2.88,2.62h-3.1c-1.92,0-2.88-.87-2.88-2.62V5.5c0-1.75,1-2.62,2.88-2.62h3.1c1.92,0,2.88.87,2.88,2.62Z"/><path d="M122.45,2.88V5.21h-2.94V19.57h-3V5.21h-2.91V2.88Z"/></svg>