<svg id="Layer_1" data-name="Layer 1" xmlns="http://www.w3.org/2000/svg" viewBox="0 0 136.67 22.48"><path d="M16.86,12.46c-.14,0-.18,0-.18-.18q0-1,0-2.07c0-.15,0-.18.18-.18h3.27c.13,0,.17,0,.16.18v2.07c0,.14,0,.18-.16.18H16.86Z"/><path d="M12.1,4c0-.65,0-1.3,0-2,0-.23.09-.23.27-.23H24.71c.13,0,.17,0,.17.16,0,.7,0,1.4,0,2.11,0,.21-.13.15-.24.15H12.34C12.15,4.21,12.1,4.17,12.1,4Z"/><path d="M29.38,6.15v4.07c0,.17,0,.25-.22.25-2.38,0-4.76,0-7.14,0-.18,0-.25,0-.23-.22a3.25,3.25,0,0,0,0-.54,1.22,1.22,0,0,0-1.2-1.16q-2.1,0-4.2,0a1.22,1.22,0,0,0-1.2,1.16,3.49,3.49,0,0,0,0,.56c0,.16,0,.21-.2.2-.49,0-1,0-1.46,0-1.87,0-3.76,0-5.63,0-.27,0-.31-.08-.31-.33,0-1.32,0-2.64,0-4,0-.45,0-.47.46-.47H28.94C29.35,5.71,29.38,5.74,29.38,6.15Z"/><path d="M29.38,12.17v8.11c0,.37-.05.42-.42.42H8.08c-.46,0-.48,0-.48-.47q0-4,0-8c0-.18,0-.24.23-.24q3.57,0,7.12,0c.2,0,.27.05.25.26a3.13,3.13,0,0,0,0,.53A1.23,1.23,0,0,0,16.41,14c1.39,0,2.78,0,4.16,0a1.23,1.23,0,0,0,1.22-1.2,3.13,3.13,0,0,0,0-.53c0-.21,0-.27.26-.27,1.16,0,2.32,0,3.48,0s2.43,0,3.63,0C29.34,12,29.39,12,29.38,12.17Z"/><rect x="37.18" width="1.3" height="22.48"/><path d="M54.71,15.7V12.13a.81.81,0,0,0-.15-.57.94.94,0,0,0-.59-.14H51.83c-1.82,0-2.72-.88-2.72-2.65V4.67c0-1.75,1-2.62,2.85-2.62h2.91c1.91,0,2.86.87,2.86,2.62V7H54.66V5.09a.72.72,0,0,0-.16-.56.84.84,0,0,0-.58-.15h-1a.9.9,0,0,0-.61.15.72.72,0,0,0-.16.56V8.45a.73.73,0,0,0,.16.57.9.9,0,0,0,.61.15H55c1.85,0,2.77.86,2.77,2.59v4.37c0,1.74-1,2.62-2.88,2.62H52c-1.92,0-2.88-.88-2.88-2.62v-2.3h3V15.7a.73.73,0,0,0,.16.57.92.92,0,0,0,.61.15h1a.87.87,0,0,0,.59-.15A.78.78,0,0,0,54.71,15.7Z"/><path d="M63.05,16.42h5.08v2.33H60V2.05h7.94V4.38H63.05V9h4.1v2.36h-4.1Z"/><path d="M72.92,12.24v6.51h-3V2.05H76c1.93,0,2.89.87,2.89,2.62V9.62A2.27,2.27,0,0,1,77,12.16l2.77,6.59H76.46l-2.54-6.51Zm0-7.86V10h2.19a.87.87,0,0,0,.59-.15.77.77,0,0,0,.16-.57V5.09a.76.76,0,0,0-.16-.56.87.87,0,0,0-.59-.15Z"/><path d="M87.63,2.05h3.12l-3.31,16.7h-4L80.14,2.05h3.15l2.14,13.5Z"/><path d="M92.34,2.05h3v16.7h-3Z"/><path d="M106.81,7.58h-3.07V5a.76.76,0,0,0-.16-.57.84.84,0,0,0-.58-.15h-1.24a.87.87,0,0,0-.59.15A.81.81,0,0,0,101,5V15.84a.81.81,0,0,0,.15.57.94.94,0,0,0,.59.14H103a.91.91,0,0,0,.58-.14.76.76,0,0,0,.16-.57V13.3h3.07v2.85c0,1.75-1,2.62-2.88,2.62h-3.1c-1.92,0-2.88-.87-2.88-2.62V4.67c0-1.75,1-2.62,2.88-2.62h3.1c1.92,0,2.88.87,2.88,2.62Z"/><path d="M112,16.42h5.08v2.33H109V2.05h7.94V4.38H112V9h4.1v2.36H112Z"/><path d="M124.14,15.7V12.13a.76.76,0,0,0-.16-.57.93.93,0,0,0-.58-.14h-2.14c-1.82,0-2.73-.88-2.73-2.65V4.67c0-1.75,1-2.62,2.86-2.62h2.91c1.9,0,2.86.87,2.86,2.62V7h-3.07V5.09a.76.76,0,0,0-.16-.56.86.86,0,0,0-.58-.15h-1a.92.92,0,0,0-.61.15.76.76,0,0,0-.16.56V8.45a.77.77,0,0,0,.16.57.92.92,0,0,0,.61.15h2.09c1.85,0,2.78.86,2.78,2.59v4.37c0,1.74-1,2.62-2.88,2.62h-2.86c-1.93,0-2.89-.88-2.89-2.62v-2.3h3V15.7a.73.73,0,0,0,.16.57.87.87,0,0,0,.6.15h1a.86.86,0,0,0,.58-.15A.73.73,0,0,0,124.14,15.7Z"/></svg>