<svg id="Layer_1" data-name="Layer 1" xmlns="http://www.w3.org/2000/svg" viewBox="0 0 136.67 22.48"><path d="M11.76,2.33c0-.21,0-.43,0-.65a.92.92,0,0,1,.87-.87.87.87,0,0,1,.92.75,8.13,8.13,0,0,1,0,1.56.86.86,0,0,1-1,.72A.91.91,0,0,1,11.76,3C11.75,2.77,11.76,2.55,11.76,2.33Z"/><path d="M23.4,3V1.68a.91.91,0,0,1,.87-.87.85.85,0,0,1,.92.74,8.8,8.8,0,0,1,0,1.54.88.88,0,0,1-1,.75A.91.91,0,0,1,23.4,3Z"/><path d="M28.43,7.83H8.53v-3A1.42,1.42,0,0,1,10.1,3.28c.16,0,.35,0,.47,0s.12.26.18.4a2.06,2.06,0,0,0,3.91-.23c0-.06.05-.12.07-.19H22c.2,0,.28,0,.34.24a2.05,2.05,0,0,0,4,0c0-.16.1-.23.27-.22a2.43,2.43,0,0,1,1.13.18,1.29,1.29,0,0,1,.73,1.12C28.44,5.66,28.43,6.74,28.43,7.83Z"/><path d="M19.58,15c.35,0,.69.1,1.09.16l-.44.43c-.73.69-.63.57-.49,1.5,0,.18.07.36.1.59l-.93-.49a.79.79,0,0,0-.84,0c-.3.17-.6.31-.94.49.06-.35.1-.65.17-.95a.82.82,0,0,0-.28-.9,8.18,8.18,0,0,1-.63-.68c.31-.05.65-.11,1-.15a.66.66,0,0,0,.6-.43l.5-1c.18.36.35.67.5,1A.68.68,0,0,0,19.58,15Z"/><path d="M8.53,9V20.14a1.41,1.41,0,0,0,1.53,1.54H26.92a2.22,2.22,0,0,0,.45,0,1.38,1.38,0,0,0,1.07-1.5V9Zm13.76,6.2L21,16.48a.27.27,0,0,0-.11.31c.12.61.23,1.23.31,1.85a.56.56,0,0,1-.83.6l-.22-.11-1.48-.76a.3.3,0,0,0-.33,0c-.52.28-1.05.55-1.58.81a2.46,2.46,0,0,1-.38.14.59.59,0,0,1-.56-.73q.13-.86.3-1.71a.42.42,0,0,0-.15-.46l-1.22-1.16a.61.61,0,0,1-.24-.67.59.59,0,0,1,.58-.42l1.65-.24a.49.49,0,0,0,.46-.32c.23-.5.49-1,.73-1.47a.64.64,0,0,1,.57-.42.62.62,0,0,1,.59.43c.26.52.52,1,.79,1.57a.39.39,0,0,0,.25.18c.61.1,1.21.19,1.83.27a.58.58,0,0,1,.54.4A.58.58,0,0,1,22.29,15.22Z"/><rect x="37.18" width="1.3" height="22.48"/><path d="M52.17,17.26h5.08v2.33H49.11V2.89H57V5.22H52.17V9.85h4.11v2.36H52.17Z"/><path d="M65.38,2.89H68.5l-3.31,16.7h-4L57.89,2.89H61l2.14,13.5Z"/><path d="M73,17.26h5.08v2.33H69.93V2.89h7.94V5.22H73V9.85h4.1v2.36H73Z"/><path d="M86.28,2.89h2.78v16.7H86.2L82.63,8.53V19.59H79.82V2.89h2.94l3.52,10.9Z"/><path d="M99.38,2.89V5.22H96.44V19.59h-3V5.22H90.49V2.89Z"/><path d="M106.07,16.55V13a.76.76,0,0,0-.16-.57.93.93,0,0,0-.58-.14h-2.14c-1.82,0-2.73-.88-2.73-2.65V5.51c0-1.74,1-2.62,2.86-2.62h2.91c1.9,0,2.86.88,2.86,2.62V7.84H106V5.94a.77.77,0,0,0-.16-.57.86.86,0,0,0-.58-.15h-1a.92.92,0,0,0-.61.15.77.77,0,0,0-.16.57V9.3a.76.76,0,0,0,.16.56.92.92,0,0,0,.61.15h2.09c1.85,0,2.78.86,2.78,2.59V17c0,1.74-1,2.62-2.89,2.62H103.4c-1.93,0-2.89-.88-2.89-2.62v-2.3h3v1.88a.77.77,0,0,0,.15.56.92.92,0,0,0,.61.15h1a.86.86,0,0,0,.58-.15A.72.72,0,0,0,106.07,16.55Z"/></svg>