<svg id="Layer_1" data-name="Layer 1" xmlns="http://www.w3.org/2000/svg" viewBox="0 0 136.67 22.48"><path d="M10.8,14.35a1.06,1.06,0,0,1-.37.17l-.17.07A1.05,1.05,0,0,1,9.37,14a.87.87,0,0,1,.14-1.05,17.5,17.5,0,0,1,1.29-1.3,1,1,0,0,1,.64-.25,1,1,0,0,1,.69.3A1,1,0,0,1,12.19,13,18,18,0,0,1,10.8,14.35Z"/><path d="M9.16,7.22l-2,2.46-.1.1L7,9.72l-.86-.67C5.54,8.63,5,8.2,4.43,7.79c-.08-.07-.08-.1-.08-.1s0-.05.07-.13C6.26,5.31,8.11,3.06,9.94.8c.05-.07.09-.11.12-.11s.06,0,.12.07c.83.66,1.67,1.31,2.48,1.92.1.07.1.1.1.1s0,0-.09.15C11.5,4.36,10.34,5.79,9.16,7.22Z"/><path d="M12.15,17.56a1,1,0,0,1-1.36,0,1,1,0,0,1,0-1.35c.61-.63,1.26-1.27,2-2a.79.79,0,0,1,.58-.25.9.9,0,0,1,.44.11,1,1,0,0,1,.59,1,.61.61,0,0,0,0,.12,1.43,1.43,0,0,1-.25.45C13.48,16.28,12.88,16.87,12.15,17.56Z"/><path d="M15.91,18.35c-.49.53-.94,1-1.37,1.36a1.5,1.5,0,0,1-.42.21L14,20a1,1,0,0,1-1-.56.92.92,0,0,1,.16-1.06c.43-.46.89-.91,1.35-1.35a.94.94,0,0,1,.65-.26,1,1,0,0,1,.68.28A1,1,0,0,1,15.91,18.35Z"/><path d="M18,20.67a4.59,4.59,0,0,1-.84.87l-.18.14a.43.43,0,0,1-.21.06l-.09,0a1,1,0,0,1-.95-.59.88.88,0,0,1,.19-1.05l.55-.55a.93.93,0,0,1,1.23-.07A.89.89,0,0,1,18,20.67Z"/><path d="M19.55,21.55a.72.72,0,0,1-.11.89.79.79,0,0,1-.93.12,2.39,2.39,0,0,1-.26-.21l.95-1.19A2.68,2.68,0,0,1,19.55,21.55Z"/><path d="M27.12,14.49a1.21,1.21,0,0,1,.44.8A1.11,1.11,0,0,1,27,16.4a1.16,1.16,0,0,1-1.3-.23q-1.62-1.53-3.27-3l-.27-.26a.62.62,0,0,0-.93,0,.54.54,0,0,0-.17.42.72.72,0,0,0,.27.52l3,2.8a1.19,1.19,0,0,1,.46.76,1.11,1.11,0,0,1-1.86.95c-.31-.28-.59-.56-.88-.84L20.89,16.4l-1.74-1.69a.76.76,0,0,0-.61-.24.62.62,0,0,0-.42.31.69.69,0,0,0,.2.86l2.84,2.76.7.68.52.5a1,1,0,0,1,0,1.45,1,1,0,0,1-1.42.06c-.43-.38-.85-.77-1.26-1.16l-.53-.47a.25.25,0,0,0-.05-.07,2.24,2.24,0,0,0-1.8-1.31c0-1.54-.53-2.23-1.84-2.55a2.16,2.16,0,0,0-.33-1.82,2.13,2.13,0,0,0-1.54-.94,1.28,1.28,0,0,1,0-.19,3.3,3.3,0,0,0-.07-.77,2.14,2.14,0,0,0-1.48-1.56,2.19,2.19,0,0,0-2.12.46c-.16.15-.3.31-.45.47l-.24.25a3.15,3.15,0,0,0-.7-1.52l4.65-5.68,1.22.54A6.79,6.79,0,0,0,13,6.53q-.25.43-.45.84a1.85,1.85,0,0,0,3,2.09C16,9,16.5,8.46,17,8l.61-.65a1,1,0,0,1,1.67-.07l1.2,1.11Z"/><path d="M22.9,3.26l5.71,6.57-2.15,2.38-.58-.54L24.09,10,22.32,8.38,20,6.2a2.25,2.25,0,0,0-1.52-.6,2.22,2.22,0,0,0-1.64.72l-2,2.18a1.62,1.62,0,0,1-.19.18.63.63,0,0,1-.79,0A.59.59,0,0,1,13.64,8,5.87,5.87,0,0,1,15.1,5.87a8.29,8.29,0,0,1,4-2.08c.38-.06.77-.08,1.16-.11l.7-.05.46,0A2.49,2.49,0,0,0,22.9,3.26Z"/><path d="M32.55,7.19l.08.1-.07.09-1.06,1-1.34,1.2a.24.24,0,0,1-.08.06A.22.22,0,0,1,30,9.53c-2.1-2.42-4.21-4.85-6.33-7.26-.11-.14-.11-.15,0-.27.58-.5,1.15-1,1.72-1.54L26,0l.16-.15s.13.12.17.17l5.86,6.73Z"/><rect x="37.18" width="1.3" height="22.48"/><path d="M58,8.41H54.9V5.82a.73.73,0,0,0-.16-.57.84.84,0,0,0-.58-.15H52.92a.87.87,0,0,0-.59.15.77.77,0,0,0-.16.57V16.66a.77.77,0,0,0,.16.57.87.87,0,0,0,.59.15h1.24a.84.84,0,0,0,.58-.15.73.73,0,0,0,.16-.57V14.12H58V17c0,1.75-1,2.62-2.89,2.62H52c-1.92,0-2.88-.87-2.88-2.62V5.5c0-1.75,1-2.62,2.88-2.62h3.09C57,2.88,58,3.75,58,5.5Z"/><path d="M63.15,17.25H67.6v2.32H60.11V2.88h3Z"/><path d="M69.11,2.88h3V19.57h-3Z"/><path d="M77.92,17.25H83v2.32H74.85V2.88h7.94V5.21H77.92V9.84H82v2.35h-4.1Z"/><path d="M91.2,2.88H94V19.57H91.12l-3.57-11V19.57H84.74V2.88h2.94l3.52,10.9Z"/><path d="M104.3,2.88V5.21h-2.94V19.57h-3V5.21H95.41V2.88Z"/><path d="M111,16.53V13a.76.76,0,0,0-.16-.57.85.85,0,0,0-.58-.14h-2.14c-1.82,0-2.73-.89-2.73-2.65V5.5c0-1.75,1-2.62,2.86-2.62h2.91c1.9,0,2.86.87,2.86,2.62V7.83h-3.07V5.92a.81.81,0,0,0-.16-.57.93.93,0,0,0-.58-.14h-1a1,1,0,0,0-.61.14.81.81,0,0,0-.16.57V9.28a.79.79,0,0,0,.16.57.92.92,0,0,0,.61.15h2.09c1.85,0,2.78.86,2.78,2.59V17q0,2.61-2.88,2.61h-2.86c-1.92,0-2.89-.87-2.89-2.61V14.65h3v1.88a.76.76,0,0,0,.16.57.87.87,0,0,0,.6.15h1a.84.84,0,0,0,.58-.15A.76.76,0,0,0,111,16.53Z"/></svg>