<svg id="Layer_1" data-name="Layer 1" xmlns="http://www.w3.org/2000/svg" viewBox="0 0 136.67 22.48"><path d="M29.31,8.2a2.46,2.46,0,0,1,.92,1.93v9.79a2.5,2.5,0,0,1-2.51,2.5H9.25a2.51,2.51,0,0,1-2.51-2.5V10.13A2.46,2.46,0,0,1,7.66,8.2L16.9.62A2.47,2.47,0,0,1,18.49.06a2.45,2.45,0,0,1,1.58.56Z"/><rect x="37.18" width="1.3" height="22.48"/><path d="M55.59,3.34h3V20h-3V12.92H52.15V20h-3V3.34h3v7.25h3.44Z"/><path d="M64,3.34h3.23c1.92,0,2.88.87,2.88,2.62V17.41c0,1.75-1,2.62-2.88,2.62H64c-1.92,0-2.89-.87-2.89-2.62V6C61.06,4.21,62,3.34,64,3.34ZM67,17V6.38a.81.81,0,0,0-.16-.57.87.87,0,0,0-.58-.14h-1.4a.89.89,0,0,0-.61.14.76.76,0,0,0-.16.57V17a.76.76,0,0,0,.16.57.89.89,0,0,0,.61.14h1.4a.87.87,0,0,0,.58-.14A.81.81,0,0,0,67,17Z"/><path d="M75.22,20h-2.7V3.34h3.33l2.81,9.92,2.8-9.92H84.8V20H82.13V8.31l-2.23,8.1H77.44L75.22,8.34Z"/><path d="M90.43,17.7h5.08V20H87.36V3.34H95.3V5.67H90.43V10.3h4.1v2.35h-4.1Z"/></svg>