<svg id="Layer_1" data-name="Layer 1" xmlns="http://www.w3.org/2000/svg" viewBox="0 0 136.67 22.48"><path d="M26,21.43c0-.15,0-.32-.05-.51s0-.64-.05-1,0-.4,0-.59c0-.86-.06-1.45-.08-1.9A3.93,3.93,0,0,0,25.66,16a2.92,2.92,0,0,0-.82-1.33,2.68,2.68,0,0,0-1.56-.6H22l-.16,3.12-1.78,3.94H16.89L15.12,17.2,15,14.08H13.66a2.67,2.67,0,0,0-1.53.6A2.89,2.89,0,0,0,11.32,16a3.86,3.86,0,0,0-.17,1.46c0,.45,0,1-.08,1.9,0,.19,0,.4,0,.59s0,.64,0,1,0,.36,0,.51a1.86,1.86,0,0,0,0,.87.45.45,0,0,0,.24.1H25.78a.41.41,0,0,0,.23-.1A2,2,0,0,0,26,21.43Z"/><path d="M26,21.43c0-.15,0-.32-.05-.51s0-.64-.05-1,0-.4,0-.59c0-.86-.06-1.45-.08-1.9A3.93,3.93,0,0,0,25.66,16a2.92,2.92,0,0,0-.82-1.33,2.68,2.68,0,0,0-1.56-.6H22l-.16,3.12-1.78,3.94H16.89L15.12,17.2,15,14.08H13.66a2.67,2.67,0,0,0-1.53.6A2.89,2.89,0,0,0,11.32,16a3.86,3.86,0,0,0-.17,1.46c0,.45,0,1-.08,1.9,0,.19,0,.4,0,.59s0,.64,0,1,0,.36,0,.51a1.86,1.86,0,0,0,0,.87.45.45,0,0,0,.24.1H25.78a.41.41,0,0,0,.23-.1A2,2,0,0,0,26,21.43Z"/><path d="M13.72,2.5A4.87,4.87,0,0,1,17.07.22a6.53,6.53,0,0,1,2.53,0,7.59,7.59,0,0,1,2.07.58l.25.12.22.12c.57.29.73.37.86.61a1.13,1.13,0,0,1,.09.81,3.79,3.79,0,0,1,.8,1.6,3.88,3.88,0,0,1,.08.73,3.66,3.66,0,0,1-.28,1.39,2.1,2.1,0,0,1,.22,1.32,2.15,2.15,0,0,1-.65,1.2,5.2,5.2,0,0,1-.54,1.42,5.19,5.19,0,0,1-4.13,2.81h-.07a5.13,5.13,0,0,1-4.67-4.29,2.21,2.21,0,0,1-.63-1.46A2,2,0,0,1,13.5,6,4.55,4.55,0,0,1,13.72,2.5Z"/><path d="M19.35,18.14a8.25,8.25,0,0,1-.1.9H17.76a8.25,8.25,0,0,1-.1-.9,9.45,9.45,0,0,1,.24-2.8,10.29,10.29,0,0,1-.54-1c-.12-.25-.23-.49-.32-.72a3.59,3.59,0,0,1,1.46-.29,3.55,3.55,0,0,1,1.46.29,7.1,7.1,0,0,1-.31.72,10.29,10.29,0,0,1-.54,1A9.45,9.45,0,0,1,19.35,18.14Z"/><path d="M14.3,7.11a1.16,1.16,0,0,0,.4.8l.16.13,0,.19c.38,2,2,3.58,3.63,3.58h.05a4.1,4.1,0,0,0,3.19-2.25,4.18,4.18,0,0,0,.46-1.28l0-.21.17-.13a1,1,0,0,0,.2-1.43l-.2-.28.15-.3a2.48,2.48,0,0,0,.24-1.67A2.45,2.45,0,0,0,22.08,3l-.29-.28L22,2.33A.64.64,0,0,0,22,2.18L21.67,2l-.25-.14-.2-.1a6.83,6.83,0,0,0-1.77-.49,7.36,7.36,0,0,0-1.12-.09,4.6,4.6,0,0,0-1,.1A3.85,3.85,0,0,0,14.69,3a3.52,3.52,0,0,0-.08,2.87l.11.29-.19.25A1.08,1.08,0,0,0,14.3,7.11Z"/><rect x="37.18" width="1.3" height="22.48"/><path d="M58,2.89V5.22H55.06V19.59H52V5.22H49.11V2.89Z"/><path d="M62.47,17.26h5.08v2.33H59.4V2.89h7.93V5.22H62.47V9.85h4.1v2.36h-4.1Z"/><path d="M76.15,19.59l-.64-3.47H71.86l-.58,3.47h-3L71.6,2.89h4.1l3.51,16.7Zm-3.89-5.77h2.83l-1.46-8Z"/><path d="M83.4,19.59H80.7V2.89H84l2.8,9.92,2.81-9.92H93v16.7H90.3V7.87L88.08,16H85.62L83.4,7.89Z"/></svg>