<svg id="Layer_1" data-name="Layer 1" xmlns="http://www.w3.org/2000/svg" viewBox="0 0 163.35 27.97"><rect x="116.14" y="2.18" width="1.37" height="23.61"/><path d="M27.79,22.75h-3.2V17.2l-4.08-12h3.25l2.39,9,2.25-9h3.25L27.79,17.11Z"/><path d="M36,5.22h3.39c2,0,3,.92,3,2.75V20c0,1.84-1,2.75-3,2.75H36c-2,0-3-.91-3-2.75V8C33,6.14,34,5.22,36,5.22Zm3.23,14.34V8.41A.8.8,0,0,0,39,7.82a.86.86,0,0,0-.61-.16H37a.91.91,0,0,0-.64.16.8.8,0,0,0-.17.59V19.56a.8.8,0,0,0,.17.59.91.91,0,0,0,.64.16h1.47a.86.86,0,0,0,.61-.16A.8.8,0,0,0,39.21,19.56Z"/><path d="M51.21,5.22h3.2V20c0,1.84-1,2.75-3,2.75H48c-2,0-3-.91-3-2.75V5.22h3.2V19.56a.8.8,0,0,0,.16.59.88.88,0,0,0,.61.16h1.48a1,1,0,0,0,.64-.16.8.8,0,0,0,.16-.59Z"/><path d="M65.19,5.22V7.66H62.11V22.75h-3.2V7.66H55.85V5.22Z"/><path d="M72.89,5.22h3.19V20c0,1.84-1,2.75-3,2.75H69.66c-2,0-3-.91-3-2.75V5.22h3.2V19.56a.8.8,0,0,0,.17.59.86.86,0,0,0,.61.16h1.47a.91.91,0,0,0,.64-.16.8.8,0,0,0,.17-.59Z"/><path d="M78.72,5.22h6.67c2,0,3,.92,3,2.75v3.78c0,1.17-.39,1.88-1.17,2.14.78.26,1.17.92,1.17,2V20c0,1.84-1,2.75-3,2.75H78.72ZM85.25,12V8.3a.85.85,0,0,0-.16-.6,1,1,0,0,0-.64-.15H81.92v5.17h2.53a1,1,0,0,0,.64-.15A.81.81,0,0,0,85.25,12Zm0,7.7V15.81a.81.81,0,0,0-.16-.6,1,1,0,0,0-.64-.15H81.92v5.36h2.53a1,1,0,0,0,.64-.15A.85.85,0,0,0,85.25,19.67Z"/><path d="M94.17,20.31h5.34v2.44H91V5.22h8.34V7.66H94.17v4.87h4.31V15H94.17Z"/><polygon points="147.38 11.55 152.05 13.92 151.66 14.13 147.38 16.42 147.38 11.55"/><path d="M149.37,0a14,14,0,1,0,14,14A14,14,0,0,0,149.37,0Zm8.76,17.15a3,3,0,0,1-3,3H143.63a3,3,0,0,1-3-3V10.81a3,3,0,0,1,3-3h11.48a3,3,0,0,1,3,3Z"/></svg>