<svg id="Layer_1" data-name="Layer 1" xmlns="http://www.w3.org/2000/svg" viewBox="0 0 163.35 27.97"><rect x="116.14" y="2.18" width="1.37" height="23.61"/><path d="M24.31,20.31H29v2.44H21.12V5.22h3.19Z"/><path d="M30.56,5.22h3.2V22.75h-3.2Z"/><path d="M43.38,5.22h2.91V22.75h-3L39.54,11.14V22.75H36.6V5.22h3.08l3.7,11.45Z"/><path d="M49,22.75V5.22h3.19V22.75ZM59.27,5.22l-3.61,8.72,3.58,8.81H55.8l-3.48-8.81,3.5-8.72Z"/><path d="M64.05,20.31h5.34v2.44H60.83V5.22h8.33V7.66H64.05v4.87h4.31V15H64.05Z"/><path d="M71.36,5.22H78c2,0,3,.91,3,2.75V20c0,1.83-1,2.75-3,2.75H71.36Zm6.47,14.45V8.3a.85.85,0,0,0-.16-.6.94.94,0,0,0-.61-.15H74.55V20.42h2.51a.88.88,0,0,0,.61-.16A.8.8,0,0,0,77.83,19.67Z"/><path d="M83.78,5.22H87V22.75h-3.2Z"/><path d="M96.59,5.22h2.92V22.75h-3L92.76,11.14V22.75h-3V5.22h3.08l3.7,11.45Z"/><path d="M149.37,0a14,14,0,1,0,14,14A14,14,0,0,0,149.37,0Zm-3.62,20.51c0,.41-.17.58-.58.58h-1.84c-.4,0-.58-.18-.58-.58V12.17c0-.43.17-.6.6-.6h1.83c.39,0,.57.18.57.56Zm-1.49-9.76a1.94,1.94,0,1,1,1.93-1.95A1.93,1.93,0,0,1,144.26,10.75Zm12.17,9.8c0,.37-.17.54-.53.54h-2a.46.46,0,0,1-.53-.53V16.09a3.67,3.67,0,0,0-.17-1.1A1.36,1.36,0,0,0,152,14a1.48,1.48,0,0,0-1.54.82,3,3,0,0,0-.32,1.39v4.29c0,.4-.16.57-.57.57h-1.89c-.38,0-.55-.17-.55-.56V12.12c0-.39.18-.55.56-.55h1.92a.46.46,0,0,1,.53.52v.6a3.2,3.2,0,0,1,1.11-.93,4.21,4.21,0,0,1,2.1-.32A3.18,3.18,0,0,1,155,12a3.27,3.27,0,0,1,1.16,1.79,7.91,7.91,0,0,1,.25,2.06C156.43,17.41,156.43,19,156.43,20.55Z"/></svg>