<svg id="Layer_1" data-name="Layer 1" xmlns="http://www.w3.org/2000/svg" viewBox="0 0 163.33 27.97"><rect x="116.11" y="2.18" width="1.37" height="23.61"/><path d="M0,5.2H3.2V22.74H0Z"/><path d="M12.81,5.2h2.92V22.74h-3L9,11.12V22.74H6V5.2H9.11l3.7,11.45Z"/><path d="M24,19.54V15.79a.78.78,0,0,0-.17-.6A.92.92,0,0,0,23.2,15H21c-1.91,0-2.86-.93-2.86-2.78V8c0-1.83,1-2.75,3-2.75h3.06c2,0,3,.92,3,2.75V10.4H23.93v-2a.81.81,0,0,0-.17-.6.94.94,0,0,0-.61-.15H22.09a1,1,0,0,0-.64.15.81.81,0,0,0-.16.6v3.53a.85.85,0,0,0,.16.6,1,1,0,0,0,.64.15h2.2c1.94,0,2.92.91,2.92,2.72V20c0,1.83-1,2.75-3,2.75h-3c-2,0-3-.92-3-2.75V17.57h3.19v2a.81.81,0,0,0,.17.6,1,1,0,0,0,.64.15H23.2a.92.92,0,0,0,.61-.15A.77.77,0,0,0,24,19.54Z"/><path d="M37.65,5.2V7.65H34.57V22.74h-3.2V7.65H28.32V5.2Z"/><path d="M46.32,22.74l-.66-3.64H41.82l-.61,3.64H38L41.54,5.2h4.31l3.7,17.54Zm-4.08-6.06h3L43.68,8.29Z"/><path d="M60.27,10.59H57.05V8.29a.81.81,0,0,0-.17-.6.92.92,0,0,0-.61-.15H55a.94.94,0,0,0-.61.15.81.81,0,0,0-.16.6V19.68a.81.81,0,0,0,.16.6.94.94,0,0,0,.61.15h1.31a.92.92,0,0,0,.61-.15.81.81,0,0,0,.17-.6V15.79H55.66V13.54h4.61V20q0,2.76-3,2.76H54q-3,0-3-2.76V8c0-1.83,1-2.75,3-2.75h3.25c2,0,3,.92,3,2.75Z"/><path d="M65.86,15.9v6.84h-3.2V5.2h6.45c2,0,3,.92,3,2.75v5.2a2.38,2.38,0,0,1-2,2.67L73,22.74H69.58L66.91,15.9Zm0-8.25v5.89h2.3a1,1,0,0,0,.62-.15.81.81,0,0,0,.16-.6V8.4a.81.81,0,0,0-.16-.6,1,1,0,0,0-.62-.15Z"/><path d="M81.81,22.74l-.67-3.64H77.31l-.61,3.64H73.5L77,5.2h4.31L85,22.74Zm-4.09-6.06h3L79.17,8.29Z"/><path d="M89.42,22.74H86.59V5.2h3.5l3,10.42L96,5.2h3.5V22.74H96.67V10.43l-2.33,8.5H91.76l-2.34-8.47Z"/><path d="M152.12,14a2.78,2.78,0,1,1-2.78-2.77A2.77,2.77,0,0,1,152.12,14Z"/><path d="M149.34,0a14,14,0,1,0,14,14A14,14,0,0,0,149.34,0Zm8.25,17.51a4.72,4.72,0,0,1-4.73,4.72h-7a4.72,4.72,0,0,1-4.73-4.72v-7a4.73,4.73,0,0,1,4.73-4.73h7a4.73,4.73,0,0,1,4.73,4.73ZM152.28,7.09H146.4a4,4,0,0,0-4,3.95v5.89a4,4,0,0,0,4,3.95h5.88a4,4,0,0,0,4-3.95V11A4,4,0,0,0,152.28,7.09Zm-2.94,11.09a4.2,4.2,0,1,1,4.19-4.2A4.2,4.2,0,0,1,149.34,18.18Zm4.4-7.63a.94.94,0,1,1,.94-.94A.95.95,0,0,1,153.74,10.55Z"/></svg>