<svg id="Layer_1" data-name="Layer 1" xmlns="http://www.w3.org/2000/svg" viewBox="0 0 163.35 27.97"><rect x="116.14" y="2.18" width="1.37" height="23.61"/><path d="M17.78,7.65H12.5V13h4.31v2.34H12.5v7.42H9.28V5.2h8.5Z"/><path d="M26.56,22.74,25.9,19.1H22.06l-.61,3.64H18.26L21.79,5.2h4.3l3.7,17.54Zm-4.08-6.06h3L23.93,8.29Z"/><path d="M40.52,11H37.29V8.29a.81.81,0,0,0-.16-.6,1,1,0,0,0-.62-.15h-1.3a.92.92,0,0,0-.61.15.77.77,0,0,0-.17.6V19.68a.77.77,0,0,0,.17.6.92.92,0,0,0,.61.15h1.3a1,1,0,0,0,.62-.15.81.81,0,0,0,.16-.6V17h3.23v3c0,1.83-1,2.75-3,2.75H34.23c-2,0-3-.92-3-2.75V8c0-1.84,1-2.76,3-2.76h3.26q3,0,3,2.76Z"/><path d="M46,20.29h5.33v2.45H42.77V5.2H51.1V7.65H46v4.86H50.3V15H46Z"/><path d="M53.16,5.2h6.67q3,0,3,2.76v3.77c0,1.17-.39,1.88-1.17,2.14q1.17.39,1.17,2V20c0,1.83-1,2.75-3,2.75H53.16ZM59.69,12V8.29a.81.81,0,0,0-.17-.6,1,1,0,0,0-.64-.15H56.35v5.17h2.53a.91.91,0,0,0,.64-.16A.8.8,0,0,0,59.69,12Zm0,7.69V15.79a.84.84,0,0,0-.17-.6,1,1,0,0,0-.64-.15H56.35V20.4h2.53a1,1,0,0,0,.64-.15A.81.81,0,0,0,59.69,19.65Z"/><path d="M68.3,5.2h3.39q3,0,3,2.76V20c0,1.83-1,2.75-3,2.75H68.3c-2,0-3-.92-3-2.75V8Q65.27,5.2,68.3,5.2Zm3.23,14.34V8.4a.81.81,0,0,0-.17-.6.94.94,0,0,0-.61-.15H69.28a1,1,0,0,0-.64.15.77.77,0,0,0-.17.6V19.54a.77.77,0,0,0,.17.6,1,1,0,0,0,.64.15h1.47a.94.94,0,0,0,.61-.15A.81.81,0,0,0,71.53,19.54Z"/><path d="M80.22,5.2h3.39q3,0,3,2.76V20c0,1.83-1,2.75-3,2.75H80.22c-2,0-3-.92-3-2.75V8Q77.19,5.2,80.22,5.2Zm3.23,14.34V8.4a.81.81,0,0,0-.17-.6.92.92,0,0,0-.61-.15H81.2a1,1,0,0,0-.64.15.81.81,0,0,0-.17.6V19.54a.81.81,0,0,0,.17.6,1,1,0,0,0,.64.15h1.47a.92.92,0,0,0,.61-.15A.81.81,0,0,0,83.45,19.54Z"/><path d="M89.23,22.74V5.2h3.19V22.74ZM99.51,5.2,95.9,13.93l3.58,8.81H96l-3.48-8.81,3.5-8.73Z"/><path d="M149.37,0a14,14,0,1,0,14,14A14,14,0,0,0,149.37,0Zm7.79,21a.76.76,0,0,1-.75.76h-4.19V15.37h2.12V13.3h-2.12V11.18a1.56,1.56,0,0,1,.43-.59,1.53,1.53,0,0,1,.7-.32l1.26,0V8.46h-2.44a2.44,2.44,0,0,0-2.13,2V13.3h-2.13v2.07H150q0,3.21,0,6.42h-7.72a.77.77,0,0,1-.76-.76V6.94a.76.76,0,0,1,.76-.75h14.08a.76.76,0,0,1,.75.75Z"/></svg>