<svg id="Layer_1" data-name="Layer 1" xmlns="http://www.w3.org/2000/svg" viewBox="0 0 163.57 27.97"><rect x="116.36" y="2.18" width="1.37" height="23.61"/><path d="M148.4,15.21a1.68,1.68,0,1,1-3.3,0,1.68,1.68,0,1,1,3.3,0Z"/><path d="M154.08,15.21a1.68,1.68,0,1,1-3.3,0,1.68,1.68,0,1,1,3.3,0Z"/><path d="M149.59,0a14,14,0,1,0,14,14A14,14,0,0,0,149.59,0Zm7.87,20.45a8.44,8.44,0,0,1-3.74.93l-.74-1a8.91,8.91,0,0,0,1.46-.65,9.58,9.58,0,0,0,2.51-2,12,12,0,0,1-2.62,1.3,15.75,15.75,0,0,1-9.48,0,12.19,12.19,0,0,1-2.62-1.3,9.48,9.48,0,0,0,2.52,2,8.48,8.48,0,0,0,1.45.65l-.74,1a8.39,8.39,0,0,1-6.13-2.77,24.79,24.79,0,0,1,1.32-6.85,25.92,25.92,0,0,1,1.42-3.3,9.17,9.17,0,0,1,2.54-1.4,9.06,9.06,0,0,1,2.27-.49c.05.16.09.33.15.49a9.13,9.13,0,0,0-2.42.86,9,9,0,0,0-1.93,1.39,13.33,13.33,0,0,1,13.82,0,9,9,0,0,0-1.93-1.39,9.2,9.2,0,0,0-2.41-.86c.05-.16.09-.33.14-.49a9.06,9.06,0,0,1,2.27.49,9.17,9.17,0,0,1,2.54,1.4,24.56,24.56,0,0,1,1.42,3.3,25.23,25.23,0,0,1,1.33,6.85A8.7,8.7,0,0,1,157.46,20.45Z"/><path d="M25.45,5.25h6.64c2,0,3,.91,3,2.74V20c0,1.82-1,2.73-3,2.73H25.45Zm6.44,14.37V8.32a.81.81,0,0,0-.16-.6.92.92,0,0,0-.61-.15H28.63v12.8h2.49a.92.92,0,0,0,.61-.15A.81.81,0,0,0,31.89,19.62Z"/><path d="M37.81,5.25H41V22.69H37.81Z"/><path d="M49.34,19.51V15.78a.8.8,0,0,0-.17-.59.91.91,0,0,0-.61-.16H46.32c-1.89,0-2.84-.92-2.84-2.76V8c0-1.83,1-2.74,3-2.74h3c2,0,3,.91,3,2.74v2.43H49.28v-2a.83.83,0,0,0-.16-.6.94.94,0,0,0-.61-.15h-1a1,1,0,0,0-.64.15.83.83,0,0,0-.16.6v3.51a.8.8,0,0,0,.16.59,1,1,0,0,0,.64.16h2.18c1.94,0,2.9.9,2.9,2.7V20c0,1.82-1,2.73-3,2.73h-3c-2,0-3-.91-3-2.73V17.55h3.18v2a.81.81,0,0,0,.17.6,1,1,0,0,0,.63.15h1.05a.92.92,0,0,0,.61-.15A.81.81,0,0,0,49.34,19.51Z"/><path d="M64,11H60.75V8.32a.81.81,0,0,0-.16-.6A.94.94,0,0,0,60,7.57h-1.3a.94.94,0,0,0-.61.15.81.81,0,0,0-.16.6V19.65a.83.83,0,0,0,.16.6.94.94,0,0,0,.61.15H60a.94.94,0,0,0,.61-.15.83.83,0,0,0,.16-.6V17H64v3c0,1.83-1,2.74-3,2.74H57.71c-2,0-3-.91-3-2.74V8c0-1.83,1-2.74,3-2.74H61c2,0,3,.91,3,2.74Z"/><path d="M69.1,5.25h3.37c2,0,3,.91,3,2.74V20c0,1.82-1,2.73-3,2.73H69.1c-2,0-3-.91-3-2.73V8C66.09,6.16,67.09,5.25,69.1,5.25Zm3.21,14.26V8.43a.83.83,0,0,0-.17-.6.92.92,0,0,0-.61-.15H70.07a1,1,0,0,0-.64.15.83.83,0,0,0-.16.6V19.51a.81.81,0,0,0,.16.6,1,1,0,0,0,.64.15h1.46a.92.92,0,0,0,.61-.15A.81.81,0,0,0,72.31,19.51Z"/><path d="M81.24,15.89v6.8H78.06V5.25h6.41c2,0,3,.91,3,2.74v5.17a2.36,2.36,0,0,1-2,2.65l2.9,6.88H84.94l-2.65-6.8Zm0-8.21v5.86h2.29a.92.92,0,0,0,.61-.15.8.8,0,0,0,.17-.59V8.43a.83.83,0,0,0-.17-.6.92.92,0,0,0-.61-.15Z"/><path d="M90.08,5.25h6.64c2,0,3,.91,3,2.74V20c0,1.82-1,2.73-3,2.73H90.08Zm6.44,14.37V8.32a.81.81,0,0,0-.16-.6.94.94,0,0,0-.61-.15H93.26v12.8h2.49a.94.94,0,0,0,.61-.15A.81.81,0,0,0,96.52,19.62Z"/></svg>