<svg id="Layer_1" data-name="Layer 1" xmlns="http://www.w3.org/2000/svg" viewBox="0 0 217.04 42.17"><defs><style>.cls-1{fill:#fff;}</style></defs><path class="cls-1" d="M40.46,21.17A18.87,18.87,0,0,1,26.72,39.25l-3-4L21.92,32.8V27.91h4.59v6.58a14.49,14.49,0,0,0,7.56-6.58,14.11,14.11,0,0,0,1.54-4.5h-9.1V18.87h9.1A14.37,14.37,0,0,0,26.51,7.8v6.61H21.92V2.34A19.27,19.27,0,0,1,26.51,3,18.89,18.89,0,0,1,40.46,21.17Z"/><path class="cls-1" d="M41,12.87A21.26,21.26,0,0,0,29.66,1.66,21.51,21.51,0,0,0,6.26,6.17,20.87,20.87,0,0,0,0,21.08a20.62,20.62,0,0,0,1.68,8.21A20.86,20.86,0,0,0,6.26,36,21.33,21.33,0,0,0,13,40.51a20,20,0,0,0,2.7.92,21.63,21.63,0,0,0,11.22,0,20,20,0,0,0,2.7-.92A21.24,21.24,0,0,0,41,29.29a20.9,20.9,0,0,0,0-16.42ZM27.45,40.23c-.38.12-.76.22-1.15.32v0l-.73-1L22.47,35.4l-.55-.75-.57-.77-.61.81-.52.72-3.08,4.14-.74,1v0l-1.14-.32A20.14,20.14,0,0,1,1,21.08,20.22,20.22,0,0,1,21.35,1,20.21,20.21,0,0,1,41.68,21.08,20.14,20.14,0,0,1,27.45,40.23Z"/><path class="cls-1" d="M20.74,2.34v4.6l-4.31,7.47-2.58,4.46L8.57,28a14.47,14.47,0,0,0,7.61,6.51V23.41h4.56v9.43l-1.8,2.42-3,4A19,19,0,0,1,3.45,27.75l3.36-5.83,4.33-7.51,3.43-5.94a14.45,14.45,0,0,0-6.08,5.94h-5A19.09,19.09,0,0,1,20.74,2.34Z"/><path class="cls-1" d="M62.19,4.37V8.15L54.91,20H62v3.77H49.38V20L56.66,8.15H49.77V4.37Z"/><path class="cls-1" d="M69.28,20H75.9v3.77H64V4.37H75.63V8.15H69.28V12.1h5.47v3.78H69.28Z"/><path class="cls-1" d="M86.41,4.37h4.83V23.76H86.71L82.39,13.58V23.76H77.56V4.37h4.53l4.32,10.36Z"/><path class="cls-1" d="M98.94,20h6.62v3.77H93.66V4.37h11.63V8.15H98.94V12.1h5.47v3.78H98.94Z"/><path class="cls-1" d="M118.91,4.37V8.15h-3.74V23.76h-5.29V8.15h-3.72V4.37Z"/><path class="cls-1" d="M120.27,4.37h5.29V23.76h-5.29Z"/><path class="cls-1" d="M141,11.62h-5.29V8.51c0-.45-.25-.67-.75-.67h-1.06c-.5,0-.75.22-.75.67V19.62c0,.45.25.67.75.67h1.06c.5,0,.75-.22.75-.67v-3H141V20q0,3.74-4.44,3.74h-4.26q-4.44,0-4.44-3.74V8.12q0-3.75,4.44-3.75h4.26q4.44,0,4.44,3.75Z"/><path class="cls-1" d="M151.5,22h5.17v1.78h-7.25V5h7V6.76H151.5V13.1h4.05v1.78H151.5Z"/><path class="cls-1" d="M163.85,21V15.91c0-.4,0-.66-.18-.77a1.17,1.17,0,0,0-.75-.17h-2.06a2.1,2.1,0,0,1-2.38-2.38V7.36A2.11,2.11,0,0,1,160.86,5h2.66a2.12,2.12,0,0,1,2.39,2.39v2.9h-2.09V7.69a1.2,1.2,0,0,0-.16-.77,1.2,1.2,0,0,0-.77-.16H161.5a1.2,1.2,0,0,0-.77.16,1.18,1.18,0,0,0-.17.77v4.56a1.19,1.19,0,0,0,.17.76,1.11,1.11,0,0,0,.77.18h2.05a2.12,2.12,0,0,1,2.39,2.39v5.8a2.11,2.11,0,0,1-2.39,2.38h-2.63a2.1,2.1,0,0,1-2.38-2.38v-2.9h2.08V21a1.16,1.16,0,0,0,.17.77,1.18,1.18,0,0,0,.77.17h1.36a1.17,1.17,0,0,0,.75-.17C163.8,21.7,163.85,21.45,163.85,21Z"/><path class="cls-1" d="M168.81,5h5.47a2.11,2.11,0,0,1,2.38,2.39v6.46a2.1,2.1,0,0,1-2.38,2.39h-3.42v7.55h-2.05Zm5.8,8.52V7.69a1.18,1.18,0,0,0-.17-.77,1.2,1.2,0,0,0-.77-.16h-2.81v7.67h2.81a1.18,1.18,0,0,0,.77-.17A1.16,1.16,0,0,0,174.61,13.49Z"/><path class="cls-1" d="M181.46,5h3.09a2.11,2.11,0,0,1,2.38,2.39v14a2.1,2.1,0,0,1-2.38,2.38h-3.09a2.1,2.1,0,0,1-2.38-2.38v-14A2.11,2.11,0,0,1,181.46,5ZM184.88,21V7.69a1.11,1.11,0,0,0-.18-.77,1.22,1.22,0,0,0-.76-.16h-1.87a1.22,1.22,0,0,0-.76.16,1.11,1.11,0,0,0-.18.77V21a1.09,1.09,0,0,0,.18.77,1.21,1.21,0,0,0,.76.17h1.87a1.21,1.21,0,0,0,.76-.17A1.09,1.09,0,0,0,184.88,21Z"/><path class="cls-1" d="M192.16,15.91v7.85H190.1V5h5.47A2.12,2.12,0,0,1,198,7.36v6.16c0,1.43-.63,2.22-1.88,2.36l2.84,7.88h-2.23l-2.75-7.85Zm0-9.15v7.37H195a1.2,1.2,0,0,0,.77-.17,1.2,1.2,0,0,0,.16-.77V7.69a1.2,1.2,0,0,0-.16-.77,1.21,1.21,0,0,0-.77-.16Z"/><path class="cls-1" d="M207.68,5V6.76h-3v17h-2v-17h-3V5Z"/><path class="cls-1" d="M214.42,21V15.91a1.11,1.11,0,0,0-.18-.77,1.21,1.21,0,0,0-.76-.17h-2A2.11,2.11,0,0,1,209,12.59V7.36A2.12,2.12,0,0,1,211.43,5h2.66a2.11,2.11,0,0,1,2.38,2.39v2.9h-2.08V7.69a1.18,1.18,0,0,0-.17-.77,1.2,1.2,0,0,0-.77-.16h-1.39a1.2,1.2,0,0,0-.77.16,1.2,1.2,0,0,0-.16.77v4.56a1.2,1.2,0,0,0,.16.76,1.11,1.11,0,0,0,.77.18h2.06a2.11,2.11,0,0,1,2.38,2.39v5.8a2.1,2.1,0,0,1-2.38,2.38h-2.63a2.11,2.11,0,0,1-2.39-2.38v-2.9h2.09V21a1.18,1.18,0,0,0,.16.77,1.18,1.18,0,0,0,.77.17h1.36a1.21,1.21,0,0,0,.76-.17A1.09,1.09,0,0,0,214.42,21Z"/><rect class="cls-1" x="49.66" y="26.97" width="167.17" height="0.31"/><path class="cls-1" d="M50.09,36.52v3.67h-1V31.41h2.55a1,1,0,0,1,1.12,1.12v2.88c0,.67-.29,1-.88,1.1l1.33,3.68h-1l-1.28-3.67Zm0-4.27v3.44H51.4a.34.34,0,0,0,.44-.44V32.68a.54.54,0,0,0-.08-.35c0-.06-.17-.08-.36-.08Z"/><path class="cls-1" d="M56.88,31.41h1v8.78h-1Z"/><path class="cls-1" d="M64.3,38.92v-2.4a.52.52,0,0,0-.09-.36.55.55,0,0,0-.35-.07h-1A1,1,0,0,1,61.79,35V32.53a1,1,0,0,1,1.11-1.12h1.24a1,1,0,0,1,1.12,1.12v1.35h-1v-1.2a.54.54,0,0,0-.08-.35c0-.06-.17-.08-.36-.08H63.2c-.19,0-.31,0-.36.08a.54.54,0,0,0-.08.35v2.14a.58.58,0,0,0,.08.35.55.55,0,0,0,.36.08h1a1,1,0,0,1,1.11,1.12v2.71a1,1,0,0,1-1.11,1.11H62.93a1,1,0,0,1-1.11-1.11V37.72h1v1.2a.34.34,0,0,0,.44.44h.63a.54.54,0,0,0,.35-.08Q64.3,39.21,64.3,38.92Z"/><path class="cls-1" d="M70.06,39.36h2.41v.83H69.08V31.41h3.29v.84H70.06v3H72V36H70.06Z"/><path class="cls-1" d="M83.18,40.19,82.82,38H81l-.33,2.23h-1l1.37-8.78h1.54l1.51,8.78Zm-2-3.06h1.54l-.82-5Z"/><path class="cls-1" d="M87.61,31.41h2.78a1,1,0,0,1,1.12,1.12v2.53c0,.43-.18.66-.52.69a.58.58,0,0,1,.52.65v2.68a1,1,0,0,1-1.12,1.11H87.61Zm2.92,3.45V32.68c0-.18,0-.3-.08-.35a.5.5,0,0,0-.35-.08H88.59v3H90.1a.56.56,0,0,0,.35-.08C90.51,35.17,90.53,35.05,90.53,34.86Zm0,4.06V36.57a.53.53,0,0,0-.08-.36.56.56,0,0,0-.35-.08H88.59v3.23H90.1a.56.56,0,0,0,.35-.08C90.51,39.23,90.53,39.11,90.53,38.92Z"/><path class="cls-1" d="M96.5,31.41h1.44a1,1,0,0,1,1.12,1.12v6.55a1,1,0,0,1-1.12,1.11H96.5a1,1,0,0,1-1.11-1.11V32.53A1,1,0,0,1,96.5,31.41Zm1.6,7.51V32.68a.47.47,0,0,0-.09-.35c-.05-.06-.17-.08-.35-.08h-.87a.53.53,0,0,0-.36.08.54.54,0,0,0-.08.35v6.24a.55.55,0,0,0,.08.36.59.59,0,0,0,.36.08h.87a.54.54,0,0,0,.35-.08Q98.1,39.21,98.1,38.92Z"/><path class="cls-1" d="M105.69,31.41h1l-1.42,8.78h-1.53l-1.42-8.78h1l1.2,8.11Z"/><path class="cls-1" d="M111,39.36h2.41v.83H110V31.41h3.29v.84H111v3h1.89V36H111Z"/><path class="cls-1" d="M121.2,36.48v-.82H124v.82Z"/><path class="cls-1" d="M133.27,36.52v3.67h-1V31.41h2.55A1,1,0,0,1,136,32.53v2.88c0,.67-.29,1-.88,1.1l1.33,3.68h-1.05l-1.28-3.67Zm0-4.27v3.44h1.31a.34.34,0,0,0,.44-.44V32.68a.54.54,0,0,0-.08-.35c-.05-.06-.17-.08-.36-.08Z"/><path class="cls-1" d="M140.06,31.41h1v8.78h-1Z"/><path class="cls-1" d="M147.48,38.92v-2.4a.59.59,0,0,0-.08-.36.61.61,0,0,0-.36-.07h-1A1,1,0,0,1,145,35V32.53a1,1,0,0,1,1.11-1.12h1.24a1,1,0,0,1,1.12,1.12v1.35h-1v-1.2a.54.54,0,0,0-.08-.35c0-.06-.17-.08-.36-.08h-.65c-.19,0-.31,0-.36.08a.54.54,0,0,0-.08.35v2.14a.58.58,0,0,0,.08.35.55.55,0,0,0,.36.08h1a1,1,0,0,1,1.11,1.12v2.71a1,1,0,0,1-1.11,1.11h-1.23A1,1,0,0,1,145,39.08V37.72h1v1.2a.34.34,0,0,0,.44.44H147a.59.59,0,0,0,.36-.08A.55.55,0,0,0,147.48,38.92Z"/><path class="cls-1" d="M153.24,39.36h2.41v.83h-3.39V31.41h3.29v.84h-2.31v3h1.89V36h-1.89Z"/><path class="cls-1" d="M166.56,31.41v.84h-1.41v7.94h-1V32.25h-1.41v-.84Z"/><path class="cls-1" d="M170.92,31.41h1.44a1,1,0,0,1,1.12,1.12v6.55a1,1,0,0,1-1.12,1.11h-1.44a1,1,0,0,1-1.11-1.11V32.53A1,1,0,0,1,170.92,31.41Zm1.6,7.51V32.68a.47.47,0,0,0-.09-.35c-.05-.06-.17-.08-.35-.08h-.88a.5.5,0,0,0-.35.08c-.06.05-.08.17-.08.35v6.24c0,.19,0,.31.08.36a.56.56,0,0,0,.35.08h.88a.54.54,0,0,0,.35-.08Q172.52,39.21,172.52,38.92Z"/><path class="cls-1" d="M181,33.87h-1V32.68a.54.54,0,0,0-.08-.35.53.53,0,0,0-.36-.08h-.77c-.19,0-.31,0-.36.08a.54.54,0,0,0-.08.35v6.26a.56.56,0,0,0,.08.35c.05.06.17.08.36.08h.77a.53.53,0,0,0,.36-.08.56.56,0,0,0,.08-.35V36.61h-.7v-.83H181v3.31a1,1,0,0,1-1.12,1.12h-1.37a1,1,0,0,1-1.11-1.12V32.53a1,1,0,0,1,1.11-1.12h1.37A1,1,0,0,1,181,32.53Z"/><path class="cls-1" d="M185.81,39.36h2.41v.83h-3.38V31.41h3.29v.84h-2.32v3h1.89V36h-1.89Z"/><path class="cls-1" d="M194.83,31.41v.84h-1.41v7.94h-1V32.25h-1.41v-.84Z"/><path class="cls-1" d="M201,31.41h1v8.78h-1v-4h-1.89v4h-1V31.41h1v4H201Z"/><path class="cls-1" d="M207,39.36h2.41v.83H206V31.41h3.28v.84H207v3h1.89V36H207Z"/><path class="cls-1" d="M213.88,36.52v3.67h-1V31.41h2.56a1,1,0,0,1,1.11,1.12v2.88c0,.67-.29,1-.87,1.1L217,40.19h-1l-1.29-3.67Zm0-4.27v3.44h1.31a.34.34,0,0,0,.44-.44V32.68a.54.54,0,0,0-.08-.35c-.05-.06-.17-.08-.36-.08Z"/></svg>