<svg id="Layer_1" data-name="Layer 1" xmlns="http://www.w3.org/2000/svg" xmlns:xlink="http://www.w3.org/1999/xlink" viewBox="0 0 234.66 236.35"><defs><style>.cls-1{fill:#262626;}.cls-2{font-size:40.2px;fill:#f2f3e8;font-family:Montserrat-BlackItalic, Montserrat;font-weight:800;font-style:italic;}.cls-3{fill:url(#linear-gradient);}.cls-4{fill:#f0f0ef;}.cls-5{fill:#0d0d0d;}.cls-6{fill:#a7ff2d;}</style><linearGradient id="linear-gradient" x1="112.42" y1="87.16" x2="156.9" y2="212.5" gradientUnits="userSpaceOnUse"><stop offset="0" stop-color="#a7ff2d"/><stop offset="0.99" stop-color="#3cab00"/></linearGradient></defs><path class="cls-1" d="M92.24,31.09c2.18,1.31,3.69,1.42,4.77,7.2,2.43,13,.58,23.92-6.47,35.12-2.87,4.55-6.33,9-11.12,11.41-7.91,4-17.38,1.89-26.26,1.75a4.58,4.58,0,0,0-2.74.56c-2,1.4-.81,4.5-1.12,6.93-.51,3.89-5.34,6.75-4.49,10.58.53,2.4,3,3.7,4.79,5.4A10.79,10.79,0,0,1,51,123.4c2.46-3.41-1.29-7.9-5-9.91s-8.32-4.34-8.36-8.54,5.15-7.51,4.66-11.8C42,90.52,39.54,88.58,37,88s-5.27-.24-7.91,0A56.93,56.93,0,0,1,13.58,87C8.46,86,2.93,83.75.9,79c-1.11-2.64-1-5.62-.75-8.47C.72,62.77,1.62,55,4.58,47.84S12.82,34.23,20,31.39c4.5-1.78,9.43-2.05,14.26-2.23,16-.58,27.18-.15,44-.42C78.3,28.74,88.41,28.79,92.24,31.09Z"/><text class="cls-2" transform="translate(22.5 75.49)">Hi!</text><path class="cls-3" d="M178,83.57c3.08,8.83,3.64,22.79,4.09,36.24s2,27.87,10.77,38.1c3.73,4.35,8.54,7.65,12.3,12s6.45,10.28,4.68,15.73c-2,6.33-9.39,9.53-16,9.54s-13.07-2.32-19.64-3.4a7.94,7.94,0,0,0-4.51.2c-6.81,3,2.52,14.08-.95,20.67-3,5.66-11.49,2.81-17.06-.34s-15-4.3-16.18,2c-.55,2.87,1.31,5.6,1.87,8.47,1.52,7.7-7.24,14.35-15,13.55s-14.17-6.51-19.33-12.42a122.88,122.88,0,0,1-28.72-96.37c1.66-12,5.2-23.83,11.82-33.94,11.74-17.91,30.46-31.94,51.79-31.89C137.82,61.66,170.12,61.06,178,83.57Z"/><path class="cls-4" d="M119,118.15c2.37,2.5,6,2,8.91.09a17.65,17.65,0,0,1,2.38-1.55,6.38,6.38,0,0,1,3-.45,5.19,5.19,0,0,1,2.2.52c1.64.88,2.26,2.94,2.27,4.81a11.78,11.78,0,0,1-8.52,11.09,17.58,17.58,0,0,1-6.59.22,15.85,15.85,0,0,1-6.37-1.92,10.24,10.24,0,0,1-4.54-10.8,4.05,4.05,0,0,1,1.61-2.65,4.71,4.71,0,0,1,4.14-.42A5.87,5.87,0,0,1,119,118.15Z"/><path class="cls-5" d="M109.08,113.46c-.28,0-.48-.91-.78-2.19l-.22-1a2.82,2.82,0,0,0-.52-.85,2.76,2.76,0,0,0-1.94-1,2.88,2.88,0,0,0-2,.75,3.61,3.61,0,0,0-1,1.71c-.35,1.23-.46,2.15-.74,2.15s-.6-.82-.57-2.37a4.32,4.32,0,0,1,1-2.68,4.27,4.27,0,0,1,3.37-1.43,4.2,4.2,0,0,1,3.21,1.78,3.88,3.88,0,0,1,.65,1.48c0,.39,0,.82,0,1.27C109.58,112.62,109.31,113.43,109.08,113.46Z"/><path class="cls-5" d="M145.35,113.46c-.27,0-.47-.91-.77-2.19l-.22-1a2.82,2.82,0,0,0-.52-.85,2.76,2.76,0,0,0-1.94-1,2.88,2.88,0,0,0-2,.75,3.61,3.61,0,0,0-1,1.71c-.35,1.23-.46,2.15-.74,2.15s-.6-.82-.57-2.37a4.32,4.32,0,0,1,1.05-2.68,4.27,4.27,0,0,1,3.37-1.43,4.2,4.2,0,0,1,3.21,1.78,3.88,3.88,0,0,1,.65,1.48c0,.39,0,.82,0,1.27C145.86,112.62,145.59,113.43,145.35,113.46Z"/><path class="cls-4" d="M93.17,115.57l3.86.52a.81.81,0,0,1,.23,1.53l-3.44,1.61a.81.81,0,0,0-.45.58l-.85,4.38a.81.81,0,0,1-1.53.19l-1.93-4.2a.81.81,0,0,0-.64-.46l-3.65-.44a.81.81,0,0,1-.24-1.54l3.58-1.59a.8.8,0,0,0,.48-.62l.59-4.11a.81.81,0,0,1,1.53-.23l1.83,3.92A.83.83,0,0,0,93.17,115.57Z"/><path class="cls-4" d="M159,102.81l1.94.26a.41.41,0,0,1,.12.77l-1.73.81a.4.4,0,0,0-.23.29l-.43,2.21a.41.41,0,0,1-.77.09l-1-2.11a.39.39,0,0,0-.32-.23l-1.84-.22a.41.41,0,0,1-.11-.78l1.8-.8a.39.39,0,0,0,.24-.31l.29-2.07a.41.41,0,0,1,.78-.11l.92,2A.41.41,0,0,0,159,102.81Z"/><path class="cls-1" d="M13.86,111.24l3.85.52a.81.81,0,0,1,.24,1.53l-3.44,1.61a.79.79,0,0,0-.45.58l-.85,4.38a.81.81,0,0,1-1.53.19l-1.94-4.2a.8.8,0,0,0-.64-.46L5.45,115a.81.81,0,0,1-.23-1.54l3.58-1.59a.8.8,0,0,0,.48-.62l.58-4.11a.81.81,0,0,1,1.54-.23l1.83,3.92A.83.83,0,0,0,13.86,111.24Z"/><path class="cls-1" d="M218,39.78l3.86.52a.8.8,0,0,1,.23,1.53l-3.44,1.61a.81.81,0,0,0-.45.58l-.85,4.38a.81.81,0,0,1-1.53.19l-1.93-4.2a.81.81,0,0,0-.64-.46l-3.65-.44a.81.81,0,0,1-.23-1.54l3.58-1.59a.81.81,0,0,0,.47-.62l.59-4.11a.81.81,0,0,1,1.53-.23l1.84,3.92A.8.8,0,0,0,218,39.78Z"/><path class="cls-1" d="M112.88,37.34l1.93.25a.41.41,0,0,1,.12.78l-1.73.8a.43.43,0,0,0-.22.29l-.43,2.21a.41.41,0,0,1-.77.09l-1-2.11a.41.41,0,0,0-.32-.23l-1.83-.22a.41.41,0,0,1-.12-.78l1.8-.79a.41.41,0,0,0,.23-.32l.3-2.06a.41.41,0,0,1,.77-.11l.92,2A.42.42,0,0,0,112.88,37.34Z"/><path class="cls-1" d="M202,125.73l1.93.26a.4.4,0,0,1,.12.77l-1.73.81a.39.39,0,0,0-.22.29l-.43,2.2a.41.41,0,0,1-.77.09l-1-2.1a.42.42,0,0,0-.32-.24l-1.83-.22a.4.4,0,0,1-.12-.77l1.8-.8a.42.42,0,0,0,.24-.31l.29-2.07a.41.41,0,0,1,.77-.11l.92,2A.43.43,0,0,0,202,125.73Z"/><path class="cls-6" d="M46.24,4l3.18.42a.67.67,0,0,1,.19,1.27L46.77,7a.67.67,0,0,0-.37.48l-.7,3.61a.67.67,0,0,1-1.26.16L42.85,7.8a.66.66,0,0,0-.53-.38l-3-.36a.67.67,0,0,1-.19-1.28l3-1.3A.68.68,0,0,0,42.46,4L43,.57A.66.66,0,0,1,44.21.39l1.51,3.23A.69.69,0,0,0,46.24,4Z"/><path class="cls-6" d="M230.31,95.05l3.68.5a.77.77,0,0,1,.23,1.46l-3.29,1.54a.77.77,0,0,0-.44.55l-.81,4.2a.77.77,0,0,1-1.46.17l-1.85-4a.76.76,0,0,0-.61-.44l-3.49-.42a.77.77,0,0,1-.22-1.47l3.42-1.52a.78.78,0,0,0,.45-.6l.57-3.93a.77.77,0,0,1,1.46-.22l1.76,3.75A.75.75,0,0,0,230.31,95.05Z"/><path class="cls-6" d="M63.31,196.3l1.93.26a.4.4,0,0,1,.12.77l-1.72.81a.38.38,0,0,0-.23.29l-.43,2.2a.41.41,0,0,1-.77.09l-1-2.1a.42.42,0,0,0-.32-.24l-1.83-.21a.41.41,0,0,1-.12-.78l1.8-.8a.39.39,0,0,0,.24-.31l.29-2.06a.41.41,0,0,1,.77-.12l.92,2A.41.41,0,0,0,63.31,196.3Z"/><path class="cls-6" d="M152,10.53l1.93.26a.4.4,0,0,1,.12.77l-1.73.81a.39.39,0,0,0-.22.29l-.43,2.2a.41.41,0,0,1-.77.09l-1-2.1a.42.42,0,0,0-.32-.24l-1.83-.21a.41.41,0,0,1-.12-.78l1.8-.8a.39.39,0,0,0,.24-.31L150,8.45a.41.41,0,0,1,.77-.12l.92,2A.41.41,0,0,0,152,10.53Z"/></svg>